<?xml version='1.0' encoding='utf-8'?>
<svg xmlns="http://www.w3.org/2000/svg" width="800" height="520" viewBox="0 0 800 520" role="img">
  <title>Phosphorus trichloride — PCl₃</title>
  <desc>Phosphorus trichloride — PCl₃. Bonds are lines; paired dots are lone pairs. </desc>
  <rect x="0" y="0" width="800" height="520" fill="white"/>
  <g transform="translate(80,45) scale(0.8)">
    <line x1="425.0" y1="280.0" x2="516.0" y2="280.0" stroke="#15202b" stroke-width="3" stroke-linecap="round"/>
    <line x1="400.0" y1="305.0" x2="400.0" y2="396.0" stroke="#15202b" stroke-width="3" stroke-linecap="round"/>
    <line x1="375.0" y1="280.0" x2="284.0" y2="280.0" stroke="#15202b" stroke-width="3" stroke-linecap="round"/>
    <text x="400" y="291" font-size="34" text-anchor="middle" fill="#15202b" font-family="DejaVu Sans, Arial, sans-serif" font-weight="normal">P</text>
    <circle cx="395.0" cy="242.0" r="3.8" fill="#15202b"/>
    <circle cx="405.0" cy="242.0" r="3.8" fill="#15202b"/>
    <text x="550.0" y="291.0" font-size="34" text-anchor="middle" fill="#15202b" font-family="DejaVu Sans, Arial, sans-serif" font-weight="normal">Cl</text>
    <circle cx="567.1698729810778" cy="240.26090763726916" r="3.8" fill="#15202b"/>
    <circle cx="575.8301270189222" cy="245.26090763726916" r="3.8" fill="#15202b"/>
    <circle cx="593.0" cy="275.0" r="3.8" fill="#15202b"/>
    <circle cx="593.0" cy="285.0" r="3.8" fill="#15202b"/>
    <circle cx="575.8301270189222" cy="314.73909236273084" r="3.8" fill="#15202b"/>
    <circle cx="567.1698729810778" cy="319.73909236273084" r="3.8" fill="#15202b"/>
    <text x="400.0" y="441.0" font-size="34" text-anchor="middle" fill="#15202b" font-family="DejaVu Sans, Arial, sans-serif" font-weight="normal">Cl</text>
    <circle cx="439.73909236273084" cy="447.1698729810778" r="3.8" fill="#15202b"/>
    <circle cx="434.73909236273084" cy="455.8301270189222" r="3.8" fill="#15202b"/>
    <circle cx="405.0" cy="473.0" r="3.8" fill="#15202b"/>
    <circle cx="395.0" cy="473.0" r="3.8" fill="#15202b"/>
    <circle cx="365.26090763726916" cy="455.8301270189222" r="3.8" fill="#15202b"/>
    <circle cx="360.26090763726916" cy="447.1698729810778" r="3.8" fill="#15202b"/>
    <text x="250.0" y="291.0" font-size="34" text-anchor="middle" fill="#15202b" font-family="DejaVu Sans, Arial, sans-serif" font-weight="normal">Cl</text>
    <circle cx="232.83012701892218" cy="319.73909236273084" r="3.8" fill="#15202b"/>
    <circle cx="224.16987298107782" cy="314.73909236273084" r="3.8" fill="#15202b"/>
    <circle cx="207.0" cy="285.0" r="3.8" fill="#15202b"/>
    <circle cx="207.0" cy="275.0" r="3.8" fill="#15202b"/>
    <circle cx="224.1698729810778" cy="245.26090763726916" r="3.8" fill="#15202b"/>
    <circle cx="232.83012701892216" cy="240.26090763726916" r="3.8" fill="#15202b"/>
  </g>
  </svg>
