<?xml version='1.0' encoding='utf-8'?>
<svg xmlns="http://www.w3.org/2000/svg" width="800" height="520" viewBox="0 0 800 520" role="img">
  <title>Sulfur dioxide — octet-based contributor</title>
  <desc>Sulfur dioxide — octet-based contributor. Bonds are lines; paired dots are lone pairs. One of two equivalent octet-based, charge-separated contributors.</desc>
  <rect x="0" y="0" width="800" height="520" fill="white"/>
  <g transform="translate(80,45) scale(0.8)">
    <line x1="375.0" y1="284.0" x2="245.0" y2="284.0" stroke="#15202b" stroke-width="3" stroke-linecap="round"/>
    <line x1="375.0" y1="276.0" x2="245.0" y2="276.0" stroke="#15202b" stroke-width="3" stroke-linecap="round"/>
    <line x1="425.0" y1="280.0" x2="555.0" y2="280.0" stroke="#15202b" stroke-width="3" stroke-linecap="round"/>
    <text x="400" y="291" font-size="34" text-anchor="middle" fill="#15202b" font-family="DejaVu Sans, Arial, sans-serif" font-weight="normal">S</text>
    <circle cx="395.0" cy="242.0" r="3.8" fill="#15202b"/>
    <circle cx="405.0" cy="242.0" r="3.8" fill="#15202b"/>
    <text x="425" y="263" font-size="18" text-anchor="start" fill="#155b8b" font-family="DejaVu Sans, Arial, sans-serif" font-weight="bold">+</text>
    <text x="220" y="291" font-size="34" text-anchor="middle" fill="#15202b" font-family="DejaVu Sans, Arial, sans-serif" font-weight="normal">O</text>
    <circle cx="205.33012701892218" cy="315.4089653438087" r="3.8" fill="#15202b"/>
    <circle cx="196.66987298107782" cy="310.4089653438087" r="3.8" fill="#15202b"/>
    <circle cx="196.6698729810778" cy="249.59103465619134" r="3.8" fill="#15202b"/>
    <circle cx="205.33012701892216" cy="244.59103465619134" r="3.8" fill="#15202b"/>
    <text x="580" y="291" font-size="34" text-anchor="middle" fill="#15202b" font-family="DejaVu Sans, Arial, sans-serif" font-weight="normal">O</text>
    <circle cx="575.0" cy="242.0" r="3.8" fill="#15202b"/>
    <circle cx="585.0" cy="242.0" r="3.8" fill="#15202b"/>
    <circle cx="618.0" cy="275.0" r="3.8" fill="#15202b"/>
    <circle cx="618.0" cy="285.0" r="3.8" fill="#15202b"/>
    <circle cx="585.0" cy="318.0" r="3.8" fill="#15202b"/>
    <circle cx="575.0" cy="318.0" r="3.8" fill="#15202b"/>
    <text x="642.0" y="286.0" font-size="18" text-anchor="middle" fill="#155b8b" font-family="DejaVu Sans, Arial, sans-serif" font-weight="bold">−</text>
  </g>
  </svg>
